<?xml version="1.0" encoding="utf-8"?>
<!DOCTYPE svg PUBLIC "-//W3C//DTD SVG 1.0//EN" "http://www.w3.org/TR/2001/REC-SVG-20010904/DTD/svg10.dtd">
<svg version="1.0" xmlns="http://www.w3.org/2000/svg" width="4096px" height="4096px" viewBox="0 0 4096 4096" preserveAspectRatio="xMidYMid meet">
 <g fill="#000000">
  <path d="M1902 2896.80 c-79.20 -54.40 -184.40 -126.80 -234 -161.20 -49.60 -34 -143.20 -98.80 -208 -143.60 -64.80 -44.40 -118.40 -81.20 -118.40 -81.60 -0.40 -0.40 -4.40 -61.60 -9.20 -136.40 -4.40 -74.80 -9.60 -151.20 -10.80 -170 l-2.40 -34 -81.60 -58 c-44.80 -32 -81.60 -58.80 -81.60 -60 0 -1.20 -19.20 -90 -42.40 -198 -23.20 -107.60 -58 -272.40 -77.60 -366 -20 -93.60 -36.80 -174.40 -38 -179.60 l-2.40 -9.20 13.60 11.20 c7.60 6.40 35.20 31.60 61.20 55.60 115.60 106.80 214.40 196 218.40 197.60 l4 1.20 -2.80 -50.40 -2.80 -50.40 14.40 0 14.40 0 0 -2.80 c0 -4 -84.40 -155.60 -145.60 -262 l-27.20 -46.80 1.60 -6 c1.60 -7.60 292 -598.80 293.60 -597.60 0.40 0.80 4 22 7.60 47.20 5.60 41.60 20 132.40 53.60 342 l11.60 72 28.40 26 c15.20 14.40 43.20 40 62 57.20 l34 31.20 47.20 -17.60 47.20 -18 58 -14.40 c71.60 -17.60 124.80 -26 200 -30.40 l58 -3.60 64 3.60 64 4 49.60 8 c78 12.80 140.40 30 209.60 58 l27.20 10.80 22.80 -21.20 c12.40 -11.60 40.80 -38.40 62.40 -59.20 l39.60 -38 19.60 -120.40 c10.80 -66 26.80 -167.60 35.60 -226 8.80 -58.40 16.40 -107.60 17.20 -110 l1.20 -4 54.40 110 c29.60 60.40 96.40 196 148.40 301.60 l94.40 191.60 -19.60 32.40 c-49.20 82.80 -156.40 273.60 -156.40 278.80 l0 3.60 14.40 0 14.80 0 -2 50 -2 50 2.80 0 c1.60 0 52.80 -46.40 114.40 -102.80 61.60 -56.80 127.20 -116.80 145.20 -133.20 l33.60 -29.60 -2.80 11.60 c-1.20 6.80 -22.40 104.80 -46.40 218 -24.40 113.20 -56 260.80 -70 328 -14.40 67.20 -30 139.20 -34.40 160 l-8.40 38 -78.40 56 c-42.80 30.80 -79.60 56.80 -81.20 58 l-3.60 2.40 -8 133.60 c-4.40 73.60 -9.20 150.40 -10.40 170 l-2.80 36 -104.40 72 c-57.20 39.60 -131.20 90.80 -164.40 113.60 -32.80 22.80 -140.80 97.60 -240 165.60 -98.80 68 -182.80 126 -186.40 129.20 -3.20 3.20 -8 5.60 -10 5.60 -2 0 -68.80 -44.40 -147.60 -99.20z m294 -127.20 c47.20 -32.40 168 -115.60 268 -184.80 100 -68.80 184.40 -127.60 187.20 -130.40 l4.80 -4.80 10.40 -165.60 10.40 -166 6.80 -6.80 c3.60 -3.60 39.60 -30 80.40 -59.20 40.80 -29.20 76.40 -54.80 78.80 -57.60 l5.20 -4.40 31.60 -152 c17.60 -83.60 36.40 -171.60 41.60 -196 5.60 -24 9.60 -44.80 8.80 -45.20 -0.80 -0.80 -54.40 47.60 -118.80 107.60 l-117.20 108.80 -1.20 -11.60 c-0.80 -6.40 0.40 -49.60 2.80 -95.60 2.40 -46.40 4.40 -97.20 4.40 -112.80 l0 -28.80 -50 -1.20 -49.60 -1.20 52 -92 c28.80 -50.40 82 -144 118 -207.20 36 -63.20 65.60 -116.40 65.60 -118.40 0 -1.60 -24.80 -53.20 -55.20 -114.40 -30 -61.60 -58.80 -120 -63.20 -129.60 l-8 -17.60 -14.40 89.20 -14.40 89.20 -41.60 38.80 c-22.80 21.20 -78 73.20 -123.20 115.20 l-82 76.40 -66 0.40 -66.40 0 -40 47.20 c-22.40 25.60 -53.60 62 -70 80.80 -16 18.80 -54.40 62.80 -84.80 98 -30.80 35.20 -56.80 64.40 -58.40 65.20 -1.60 0.40 -26.80 -27.20 -56.40 -61.60 -29.60 -34.40 -69.20 -80.40 -88 -102 -18.80 -21.60 -51.20 -58.80 -72 -83.20 l-38 -44 -66 0 -66 -0.40 -88 -83.20 c-48.80 -45.60 -104 -97.20 -123.20 -114.80 l-34.40 -32 -15.20 -87.20 -14.80 -86.80 -2.40 2.80 c-1.60 2 -30.40 59.20 -64 128 l-61.20 124.80 20 35.20 c11.20 19.20 40.80 72 66.40 117.20 25.20 45.20 69.60 123.60 98.40 174 l52.40 92 -50.80 1.20 -51.20 1.20 4.80 100.80 c2.40 55.20 4.80 111.20 4.80 124 l0.40 23.60 -19.60 -17.60 c-10.40 -9.60 -61.20 -56 -112.80 -103.20 -51.60 -47.20 -96.40 -88.40 -100.40 -91.20 l-6.40 -5.20 5.60 25.20 c9.60 43.20 77.60 366.40 77.60 368.80 0 1.20 38.40 29.60 85.20 62.80 l84.80 60.40 10.80 168.40 10.40 168 9.60 7.60 c12.40 9.60 424.80 295.20 522.80 362 l77.20 52.80 30.80 -21.20 c16.80 -11.60 69.20 -48 116.40 -80.80z"/>
  <path d="M1558.80 2433.20 l-2.80 -2.40 0 -65.20 0 -64.80 2.40 -6.40 2.40 -6.40 71.60 0 71.60 0 0 20 0 20 344 0 344 0 0 -20 0 -20 72 0 72 0 0 74 0 74 -71.60 0 -72 0 -1.20 -20.80 -1.20 -21.20 -342 0 -342 0 -1.20 21.20 -1.20 20.80 -71.20 0 -71.20 0 -2.40 -2.80z m88.40 -47.60 l9.20 -2.80 -1.20 -22.40 -1.20 -22.40 -22.80 -1.20 -23.20 -1.20 0 23.60 0 23.60 2.80 2.40 c3.20 3.60 24 3.60 36.40 0.40z m840.80 -21.60 l0 -23.60 -13.60 -2.40 c-7.20 -1.60 -17.60 -2 -22.80 -1.20 l-9.60 1.20 -1.20 19.60 c-0.80 10.80 -0.40 22 0.80 24.80 l2 5.60 22.40 0 22 0 0 -24z"/>
  <path d="M1704 1970.80 c-1.20 -1.20 -1.60 -34.80 -0.80 -74.40 l1.20 -72.40 71.60 0 72 0 0 73.20 0 72.80 -71.20 1.20 c-38.80 0.80 -71.60 0.80 -72.80 -0.40z"/>
  <path d="M2248 1898.40 l0 -74.40 72 0 72 0 0 73.20 0 73.60 -72 0.80 -72 0.80 0 -74z"/>
 </g>
</svg>